<svg xmlns="http://www.w3.org/2000/svg" width="100" height="100" viewBox="0 0 100 100">
  <g id="Mo_Icn_avocat_100_100" data-name="Mo Icn avocat 100 100" transform="translate(-1485 -25)">
    <g id="Groupe_5726" data-name="Groupe 5726" transform="translate(808.26 -279.164)">
      <g id="Groupe_5704" data-name="Groupe 5704" transform="translate(679.892 311.781)">
        <path id="Tracé_8884" data-name="Tracé 8884" d="M34.38.576C48.434.61,49.654,17.162,55.74,23.261c5.5,7.178,9.549,10.52,9.549,24.575S52.939,79.4,34.38,79.4,2.021,67.369,2.021,47.835c0-11.572,4.258-16.271,9.277-24.575C17.476,15.465,21.8.546,34.38.576Z" transform="translate(-2.021 5.365)" fill="#688640"/>
        <path id="Tracé_8885" data-name="Tracé 8885" d="M0,.025A32.309,32.309,0,0,1,6.2.334" transform="matrix(0.342, 0.94, -0.94, 0.342, 29.513, 0)" fill="none" stroke="#a2532d" stroke-linecap="round" stroke-width="4"/>
      </g>
      <g id="Groupe_5703" data-name="Groupe 5703" transform="translate(678.684 333.958)">
        <g id="Groupe_3332" data-name="Groupe 3332" transform="translate(38.334 0)">
          <path id="Soustraction_133" data-name="Soustraction 133" d="M25.79,6.384H24.171c.09-.783.145-1.274.145-1.274A3.453,3.453,0,0,0,23.127,2.53a4.259,4.259,0,0,0-2.864-1.07H2.03A4.4,4.4,0,0,0,0,1.95,2.012,2.012,0,0,1,2,0H26.353a1,1,0,0,1,1,1V4.925A2.507,2.507,0,0,0,25.79,6.383Z" transform="translate(0 0)"/>
          <path id="Tracé_7933" data-name="Tracé 7933" d="M3.65,0H20.073a3.65,3.65,0,0,1,3.65,3.65s-.914,9.113-1.321,11.32a7.077,7.077,0,0,1-6.194,5.262c-3.161.075-6.558-.1-10.067-.055s-5.4-3.539-5.708-6.3S0,3.65,0,3.65A3.65,3.65,0,0,1,3.65,0Z" transform="translate(0.898 1.458)" fill="none" stroke="#000" stroke-width="3"/>
        </g>
        <g id="Groupe_3333" data-name="Groupe 3333" transform="translate(0 0)">
          <path id="Soustraction_133-2" data-name="Soustraction 133" d="M26.353,7.062H2a2,2,0,0,1-2-2V4.905a4.061,4.061,0,0,0,2.03.543H20.264A4.049,4.049,0,0,0,24.315,1.41S24.26.866,24.171,0h1.619a2.632,2.632,0,0,0,1.563,1.615V6.062A1,1,0,0,1,26.353,7.062Z" transform="translate(27.352 7.063) rotate(180)"/>
          <path id="Tracé_7933-2" data-name="Tracé 7933" d="M20.073,0H3.65A3.65,3.65,0,0,0,0,3.65s.914,9.113,1.32,11.319a7.077,7.077,0,0,0,6.194,5.262c3.161.075,6.558-.1,10.067-.055s5.4-3.539,5.708-6.3.433-10.227.433-10.227A3.65,3.65,0,0,0,20.073,0Z" transform="translate(2.732 1.458)" fill="none" stroke="#000" stroke-width="3"/>
        </g>
        <path id="Soustraction_134" data-name="Soustraction 134" d="M1.815,9.8H0V0H14.6V9.8H12.847l-.073-1.885a2.039,2.039,0,0,0-2.037-2.036H3.861a1.8,1.8,0,0,0-1.363.6,2.165,2.165,0,0,0-.52,1.446L1.815,9.8Z" transform="translate(25.514 1.144)"/>
      </g>
      <g id="Groupe_5689" data-name="Groupe 5689" transform="translate(711.556 348.511) rotate(45)">
        <path id="Tracé_7916" data-name="Tracé 7916" d="M.038,22.443c1.1,2.356,15.455,5.967,21.724-2.531S23.973,1.445,22.807.064-1.058,20.09.038,22.443Z" transform="translate(0 0)" fill="#f78a9c"/>
        <path id="Tracé_7917" data-name="Tracé 7917" d="M.038,22.443c1.1,2.356,7.676-2.462,14.887-9.672S23.973,1.445,22.807.064-1.058,20.09.038,22.443Z" transform="translate(0 0)" fill="#fff"/>
      </g>
      <g id="Groupe_5681" data-name="Groupe 5681" transform="translate(711.528 311.782)">
        <g id="Groupe_5680" data-name="Groupe 5680" transform="translate(0 0)">
          <path id="Tracé_8884-2" data-name="Tracé 8884" d="M34.38.576C48.434.61,49.654,17.162,55.74,23.261c5.5,7.178,9.549,10.52,9.549,24.575S52.939,79.4,34.38,79.4,2.021,67.369,2.021,47.835c0-11.572,4.258-16.271,9.277-24.575C17.476,15.465,21.8.546,34.38.576Z" transform="translate(-2.021 5.365)" fill="#daee7c"/>
          <g id="Tracé_8894" data-name="Tracé 8894" transform="translate(-2.021 5.365)" fill="none">
            <path d="M34.38.576C48.434.61,49.654,17.162,55.74,23.261c5.5,7.178,9.549,10.52,9.549,24.575S52.939,79.4,34.38,79.4,2.021,67.369,2.021,47.835c0-11.572,4.258-16.271,9.277-24.575C17.476,15.465,21.8.546,34.38.576Z" stroke="none"/>
            <path d="M 34.34152603149414 0.576080322265625 L 34.34152603149414 8.576080322265625 C 29.96634292602539 8.576080322265625 27.07863616943359 12.94129943847656 22.84272766113281 20.13059234619141 C 21.19466781616211 22.92771148681641 19.57891845703125 25.61747360229492 17.86488342285156 27.84903717041016 L 15.86660003662109 31.06208419799805 C 12.09761810302734 37.02795791625977 10.02148818969727 40.31424713134766 10.02148818969727 47.83528518676758 C 10.02148818969727 62.15008544921875 19.58259963989258 71.39964294433594 34.37954330444336 71.39964294433594 C 48.36432647705078 71.39964294433594 57.28883361816406 57.44326782226562 57.28883361816406 47.83528518676758 C 57.28883361816406 38.14379119873047 55.40045166015625 35.75535583496094 51.26294708251953 30.52219390869141 L 49.69658660888672 28.51842498779297 C 46.98748779296875 25.63928604125977 45.24556350708008 21.98855590820312 43.55869293212891 18.45304870605469 C 39.96901702880859 10.92946624755859 38.2319450378418 8.585395812988281 34.35725402832031 8.576103210449219 L 34.34152603149414 0.576080322265625 M 34.34152984619141 0.5760955810546875 C 34.35456466674805 0.5760955810546875 34.36648941040039 0.5761032104492188 34.37954330444336 0.576141357421875 C 48.43431091308594 0.6097946166992188 49.65412902832031 17.16168212890625 55.74014282226562 23.26052093505859 C 61.236328125 30.43853759765625 65.28883361816406 33.78039169311523 65.28883361816406 47.83528518676758 C 65.28883361816406 61.89017486572266 52.93879699707031 79.39965057373047 34.37954330444336 79.39965057373047 C 15.82028961181641 79.39965057373047 2.021492004394531 67.36881256103516 2.021492004394531 47.83528518676758 C 2.021492004394531 36.26311874389648 6.279853820800781 31.56468200683594 11.29840087890625 23.26052093505859 C 17.4697151184082 15.47308349609375 21.78946304321289 0.5760955810546875 34.34152984619141 0.5760955810546875 Z" stroke="none" fill="#b2da48"/>
          </g>
          <g id="Tracé_8896" data-name="Tracé 8896" transform="translate(-2.021 5.365)" fill="none">
            <path d="M34.38.576C48.434.61,49.654,17.162,55.74,23.261c5.5,7.178,9.549,10.52,9.549,24.575S52.939,79.4,34.38,79.4,2.021,67.369,2.021,47.835c0-11.572,4.258-16.271,9.277-24.575C17.476,15.465,21.8.546,34.38.576Z" stroke="none"/>
            <path d="M 34.34151840209961 4.576103210449219 C 32.73640441894531 4.576103210449219 31.28599166870117 4.89886474609375 29.90736389160156 5.56280517578125 C 28.62229156494141 6.18170166015625 27.39579010009766 7.095664978027344 26.15776443481445 8.356903076171875 C 23.60446166992188 10.95810699462891 21.46523284912109 14.58885955810547 19.39643478393555 18.10007476806641 C 17.81303024291992 20.78747177124023 16.31478118896484 23.33032989501953 14.59413909912109 25.54020309448242 C 13.86655426025391 26.73871231079102 13.16477584838867 27.84955978393555 12.48493576049805 28.92567443847656 C 8.592777252197266 35.08649063110352 6.021476745605469 39.15656280517578 6.021476745605469 47.83527374267578 C 6.021476745605469 56.12766265869141 8.776035308837891 63.11246109008789 13.98737716674805 68.03457641601562 C 16.4733772277832 70.38260650634766 19.46274948120117 72.20787811279297 22.87246322631836 73.45968627929688 C 26.37877655029297 74.74696350097656 30.25032043457031 75.399658203125 34.37954711914062 75.399658203125 C 38.18970489501953 75.399658203125 41.85287475585938 74.54447937011719 45.26729202270508 72.85787200927734 C 48.43471908569336 71.29327392578125 51.30329132080078 69.06770324707031 53.79331970214844 66.24298858642578 C 56.12674713134766 63.59590148925781 58.05010604858398 60.4725341796875 59.35546112060547 57.21051788330078 C 60.62029266357422 54.04978942871094 61.28883361816406 50.80789184570312 61.28883361816406 47.83527374267578 C 61.28883361816406 42.61878967285156 60.69817733764648 38.76885986328125 59.43000411987305 35.71929168701172 C 58.27476501464844 32.94131851196289 56.56514739990234 30.77897644042969 54.40069198608398 28.04136276245117 C 53.85729217529297 27.35406112670898 53.2967643737793 26.64509963989258 52.71258163452148 25.88561630249023 C 50.37675476074219 23.45413970947266 48.81729888916016 20.18561172485352 47.16881942749023 16.73057556152344 C 45.65096282958984 13.54929351806641 44.0814208984375 10.25968933105469 41.97392272949219 7.940605163574219 C 39.86623382568359 5.621315002441406 37.52109146118164 4.58367919921875 34.37079238891602 4.576133728027344 L 34.34151840209961 4.576103210449219 M 34.34152603149414 0.5761032104492188 C 34.35456466674805 0.5761032104492188 34.36649322509766 0.5761184692382812 34.37954711914062 0.5761489868164062 C 48.43431854248047 0.6097869873046875 49.65412139892578 17.16168975830078 55.74015045166016 23.26053237915039 C 61.23633575439453 30.43853378295898 65.28883361816406 33.78039169311523 65.28883361816406 47.83527374267578 C 65.28883361816406 61.89017486572266 52.93880462646484 79.399658203125 34.37954711914062 79.399658203125 C 15.82028961181641 79.399658203125 2.021476745605469 67.36882019042969 2.021476745605469 47.83527374267578 C 2.021476745605469 36.26311874389648 6.279850006103516 31.56467437744141 11.29840469360352 23.26053237915039 C 17.46971130371094 15.47307586669922 21.78945159912109 0.5761032104492188 34.34152603149414 0.5761032104492188 Z" stroke="none" fill="#63803d"/>
          </g>
          <path id="Tracé_8885-2" data-name="Tracé 8885" d="M0,.025A32.309,32.309,0,0,1,6.2.334" transform="matrix(0.342, 0.94, -0.94, 0.342, 29.513, 0)" fill="none" stroke="#a2532d" stroke-linecap="round" stroke-width="4"/>
        </g>
        <path id="Tracé_8897" data-name="Tracé 8897" d="M12.538-7.8c6.925,0,12.538,12.4,12.538,19.081A12.321,12.321,0,0,1,12.538,23.366,12.321,12.321,0,0,1,0,11.276C0,4.6,5.614-7.8,12.538-7.8Z" transform="translate(19.095 44.534)" fill="#a2532d"/>
      </g>
    </g>
    <rect id="Rectangle_2790" data-name="Rectangle 2790" width="100" height="100" transform="translate(1485 25)" fill="none"/>
  </g>
</svg>
