<svg xmlns="http://www.w3.org/2000/svg" xmlns:xlink="http://www.w3.org/1999/xlink" width="768.006" height="175.38" viewBox="0 0 768.006 175.38">
  <defs>
    <linearGradient id="linear-gradient" x1="0.5" x2="0.5" y2="1" gradientUnits="objectBoundingBox">
      <stop offset="0" stop-color="#f7f7f7"/>
      <stop offset="1" stop-color="#f7f7f7"/>
    </linearGradient>
  </defs>
  <path id="Soustraction_443" data-name="Soustraction 443" d="M25490.77-1768.621h0l-226.635-.6,226.635-.253,0,.856Zm0-2.062a59.254,59.254,0,0,0-6.473-10.206,85.5,85.5,0,0,0-16.041-15.735,109.621,109.621,0,0,0-28.428-15.308,159.372,159.372,0,0,0-43.633-8.923c-5.9-.424-11.6-.639-16.918-.639a167.277,167.277,0,0,0-33.086,3.132c-9.8,1.927-19.037,4.619-28.812,7.468-13.615,3.969-29.045,8.467-50.031,12.112-24.158,4.2-51.646,6.55-84.035,7.2-9.791.2-19.205.295-27.98.295-27.611,0-50.234-.932-71.2-2.934-18.658-1.782-33.578-4.177-49.373-6.713l-.014,0c-12.469-2-25.363-4.072-40.838-5.947-17.512-2.122-35.945-3.686-56.355-4.781-10.98-.589-22.395-.887-33.926-.887-22.234,0-45.58,1.1-69.387,3.276-19.047,1.74-38.426,4.165-57.6,7.208-32.682,5.187-53.664,10.432-53.873,10.484l0-152.413h768l0,173.318Z" transform="translate(-24722.764 1944.001)" fill="url(#linear-gradient)"/>
</svg>
