<svg xmlns="http://www.w3.org/2000/svg" xmlns:xlink="http://www.w3.org/1999/xlink" width="36" height="32" viewBox="0 0 36 32">
  <defs>
    <linearGradient id="linear-gradient" x1="1.144" x2="0.027" y2="0.695" gradientUnits="objectBoundingBox">
      <stop offset="0" stop-color="#fbaa18"/>
      <stop offset="0.478" stop-color="#f8a51e"/>
      <stop offset="1" stop-color="#ea12b0"/>
    </linearGradient>
  </defs>
  <g id="Groupe_2210" data-name="Groupe 2210" transform="translate(-89 -12)">
    <path id="Union_7" data-name="Union 7" d="M-18207.582-11197.017c-.223-.012-.447-.029-.664-.052s-.441-.053-.656-.086-.432-.074-.645-.118-.426-.1-.635-.15-.416-.116-.621-.183a12.821,12.821,0,0,1-1.2-.452c-.387-.169-.773-.36-1.145-.568s-.73-.433-1.078-.674-.686-.5-1.008-.775-.635-.566-.93-.87a12.443,12.443,0,0,1-.844-.957c-.268-.331-.52-.681-.756-1.037s-.455-.731-.654-1.11-.387-.778-.551-1.179a13.118,13.118,0,0,1-.441-1.237c-.062-.211-.121-.426-.178-.64s-.1-.433-.145-.651-.08-.441-.113-.664-.064-.451-.086-.675-.039-.456-.051-.684-.016-.462-.016-.692.006-.465.016-.694.029-.458.051-.684.053-.451.086-.675.07-.445.113-.663.094-.437.145-.652.115-.429.178-.64c.127-.417.273-.834.441-1.237s.35-.8.551-1.178.42-.753.654-1.11.488-.705.756-1.038.547-.652.844-.957.607-.6.93-.869.662-.535,1.008-.775.711-.47,1.078-.675a12.713,12.713,0,0,1,1.145-.567c.393-.171.8-.323,1.2-.453.205-.066.414-.127.621-.182s.424-.105.635-.15.43-.084.645-.119.438-.062.656-.085.441-.042.664-.053.449-.017.674-.017c.3,0,.607.011.908.032s.6.053.895.095.586.094.875.155.578.133.855.214.557.171.83.271.545.208.807.325.527.243.779.378.508.276.752.428a6.853,6.853,0,0,0-.117.724c-.023.246-.041.5-.041.747a6.193,6.193,0,0,0,.033.661,6.417,6.417,0,0,0,.092.646,6.22,6.22,0,0,0,.15.623c.059.2.125.4.2.6s.162.386.254.57.2.367.307.542.225.345.35.508.258.321.395.472.281.3.434.432a5.691,5.691,0,0,0,.473.39c.16.123.332.238.5.345s.355.207.537.3.373.172.564.245a6.012,6.012,0,0,0,.59.19,6.018,6.018,0,0,0,.613.133,6.21,6.21,0,0,0,.633.072c.066.271.127.547.18.82s.1.558.129.839.063.568.082.854.025.58.025.87c0,.23-.006.464-.018.692s-.027.459-.051.684-.051.452-.082.675-.07.445-.115.664-.094.437-.146.651-.113.431-.176.64c-.129.418-.275.835-.441,1.237s-.35.8-.551,1.179-.422.752-.656,1.11-.488.706-.754,1.037-.549.653-.844.957-.609.6-.93.87-.66.534-1.01.775a12.553,12.553,0,0,1-1.08.674c-.371.208-.754.4-1.141.568s-.8.322-1.2.452q-.311.1-.621.183c-.209.055-.422.105-.637.15s-.428.084-.643.118-.436.063-.654.086-.445.04-.666.052-.449.018-.672.018S-18207.361-11197-18207.582-11197.017Zm0-20.158c-.217.022-.436.059-.65.1s-.422.1-.627.167a6.036,6.036,0,0,0-.6.228c-.193.083-.387.179-.574.282s-.363.218-.537.338-.344.251-.5.388-.318.283-.467.436-.289.313-.422.479-.258.339-.375.518a6.4,6.4,0,0,0-.33.556c-.1.19-.191.39-.275.589s-.156.41-.221.619-.117.429-.16.646-.076.444-.1.669a6.221,6.221,0,0,0-.035.689,6.252,6.252,0,0,0,.035.688c.021.223.055.448.1.669s.1.434.16.645.137.418.221.62.176.4.275.588a6.4,6.4,0,0,0,.33.556c.117.179.244.353.375.519s.275.327.422.479.307.3.467.435a6.17,6.17,0,0,0,.5.388c.174.121.355.234.537.338s.381.2.574.284.4.16.6.227.416.12.627.165a6.165,6.165,0,0,0,.65.1,6.6,6.6,0,0,0,.67.035,6.623,6.623,0,0,0,.668-.035,6.165,6.165,0,0,0,.65-.1c.211-.045.422-.1.627-.165s.4-.141.6-.227.387-.181.574-.284.365-.217.539-.338a6.17,6.17,0,0,0,.5-.388c.16-.136.316-.283.465-.435a6.341,6.341,0,0,0,.422-.479,6.322,6.322,0,0,0,.377-.519,6.376,6.376,0,0,0,.328-.556,6.064,6.064,0,0,0,.275-.588c.082-.2.156-.411.221-.62a6.608,6.608,0,0,0,.16-.645,5.94,5.94,0,0,0,.1-.669,6.729,6.729,0,0,0,.033-.688,6.734,6.734,0,0,0-.033-.689,5.907,5.907,0,0,0-.1-.669c-.043-.217-.1-.434-.16-.646s-.139-.417-.221-.619a6.08,6.08,0,0,0-.275-.589,6.376,6.376,0,0,0-.328-.556,6.144,6.144,0,0,0-.377-.518,6.341,6.341,0,0,0-.422-.479c-.148-.152-.3-.3-.465-.436s-.332-.268-.5-.388-.355-.234-.539-.338a6.249,6.249,0,0,0-.574-.282,6.189,6.189,0,0,0-.6-.228c-.205-.065-.416-.121-.627-.167s-.434-.079-.65-.1a6.348,6.348,0,0,0-.668-.034A6.331,6.331,0,0,0-18207.578-11217.175Zm18.205,1.542a6.841,6.841,0,0,0,.873-1.017,6.7,6.7,0,0,0,.359-.573c.109-.2.211-.4.3-.611s.172-.427.242-.646.129-.447.178-.674a6.03,6.03,0,0,0,.107-.7,6.816,6.816,0,0,0,.039-.722c0-.23-.012-.461-.031-.688s-.059-.449-.1-.67a6.547,6.547,0,0,0-.162-.645,6.3,6.3,0,0,0-.221-.619c-.078-.2-.176-.4-.273-.589s-.211-.378-.328-.556a6.181,6.181,0,0,0-.379-.519,5.935,5.935,0,0,0-.422-.479c-.146-.152-.3-.3-.463-.435s-.332-.268-.506-.388a6.094,6.094,0,0,0-.539-.338,5.955,5.955,0,0,0-.57-.283c-.2-.086-.4-.161-.6-.228a6.477,6.477,0,0,0-.629-.165,6.444,6.444,0,0,0-.65-.1,6.349,6.349,0,0,0-.668-.035c-.2,0-.4.011-.6.028s-.387.045-.578.08c.146-.14.3-.272.457-.4s.32-.242.488-.352.346-.213.523-.307.363-.181.549-.258.381-.146.576-.2.4-.11.6-.151a5.91,5.91,0,0,1,.619-.092c.209-.021.424-.032.635-.032a6.563,6.563,0,0,1,.668.035,6.571,6.571,0,0,1,.652.1,6.3,6.3,0,0,1,.627.166c.205.065.406.142.6.227s.383.181.568.283a5.915,5.915,0,0,1,.541.339,6.158,6.158,0,0,1,.5.387c.16.137.316.283.465.435s.289.313.422.479.258.341.379.519.227.366.326.557a5.383,5.383,0,0,1,.275.589c.082.2.156.409.221.618s.119.43.162.646.078.444.1.669.033.459.033.688c0,.2-.01.411-.027.614s-.043.4-.078.6-.078.391-.129.579-.109.377-.176.562-.141.361-.221.536-.17.347-.266.513a5.578,5.578,0,0,1-.3.485c-.109.155-.223.31-.342.456a6.751,6.751,0,0,1-.791.812c-.141.123-.289.241-.441.353s-.309.214-.473.313-.328.188-.5.271-.348.159-.523.227-.359.129-.543.181-.377.1-.564.132Z" transform="translate(18309 11240.999)" fill="url(#linear-gradient)"/>
  </g>
</svg>
